<?xml version="1.0" standalone="no"?>
<!DOCTYPE svg PUBLIC "-//W3C//DTD SVG 1.1//EN" "http://www.w3.org/Graphics/SVG/1.1/DTD/svg11.dtd" >
<svg>
<metadata>
Created by FontForge 20110222 at Mon Mar  7 12:11:26 2011
 By www-data
Copyright (c) 1999-2006 IDAutomation.com, Inc. [This free font may only be used by organizations that are non-profit, educational or have a gross annual revenue of less than $500,000 USD] See license agreement for details at http://www.BizFonts.com/free/
</metadata>
<defs>
<font id="IDAutomationHC39M" horiz-adv-x="971" >
  <font-face 
    font-family="IDAutomationHC39M"
    font-weight="400"
    font-stretch="normal"
    units-per-em="1000"
    panose-1="2 0 5 9 0 0 0 2 0 4"
    ascent="800"
    descent="-200"
    x-height="3063"
    cap-height="3063"
    bbox="2 -539 908 3063"
    underline-thickness="50"
    underline-position="-30"
    unicode-range="U+0020-00AD"
  />
    <missing-glyph />
    <glyph glyph-name="space" unicode=" " 
 />
    <glyph glyph-name="exclam" unicode="!" 
d="M908 3h-56v3060h56v-3060zM301 3h-56v3060h56v-3060zM58 3h-56v3060h56v-3060zM786 3h-177v3060h177v-3060zM544 3h-178v3060h178v-3060zM663 -285q3 -9 3 -16q0 -14 -19 -18l-93 -22q19 -17 39 -33.5t40 -33.5q11 -9 11 -17q0 -10 -12 -17q-12 -8 -28 -8q-12 0 -23 6
l-90 75q-19 -18 -37.5 -37t-37.5 -36q-11 -8 -26 -8q-13 0 -24 5q-12 8 -12 19q0 7 6 17l67 68l-97 20q-25 5 -25 24q0 5 2 14q10 14 30 14q3 0 8 -1l10 -2q23 -4 47.5 -9t48.5 -11v92q0 22 37 22q36 0 36 -27v-86q24 6 50 11t49 9q7 2 13 2q19 0 27 -16z" />
    <glyph glyph-name="dollar" unicode="$" 
d="M786 3h-56v3060h56v-3060zM301 3h-56v3060h56v-3060zM58 3h-56v3060h56v-3060zM908 3h-56v3060h56v-3060zM544 3h-57v3060h57v-3060zM452 -205q0 7 -7 7v0q-68 -7 -68 -40v-3q2 -13 20.5 -24t54.5 -16v76zM594 -398q0 15 -18.5 27t-51.5 20v-99q18 0 34 4t22 11
q14 18 14 37zM670 -393q-1 -18 -7 -32.5t-14 -26.5q-12 -16 -29 -27t-37 -16q-13 -5 -29.5 -6t-29.5 -2q-1 -16 -8.5 -26t-24.5 -10q-19 0 -29 10t-10 27q-24 2 -46.5 7.5t-43.5 14.5q-13 7 -25.5 13.5t-20.5 14.5q-16 12 -16 23q0 9 11 18q13 7 26 7q19 0 36 -15
q10 -11 30 -19t49 -11v114q-35 5 -60.5 13t-40.5 16q-22 14 -34.5 29.5t-12.5 34.5v0q0 29 17.5 49t50.5 32q42 16 80 17q1 30 36 30h1q17 0 26 -8.5t9 -21.5q32 -3 63.5 -15.5t58.5 -31.5q13 -7 13 -17q0 -9 -10 -18q-12 -11 -27 -11q-13 0 -24 8q-34 24 -63 27q-3 3 -7 3
t-4 -5v-91q79 -22 117 -47q13 -9 21 -23t8 -28z" />
    <glyph glyph-name="percent" unicode="%" 
d="M422 3h-56v3060h56v-3060zM179 3h-56v3060h56v-3060zM58 3h-56v3060h56v-3060zM908 3h-56v3060h56v-3060zM665 3h-56v3060h56v-3060zM421 -191q-1 21 -22 21q-22 0 -22 -23q0 -24 23 -24q21 0 21 26zM600 -457q-2 27 -23 27q-22 0 -23 -25q0 -22 23 -23q23 0 23 21z
M489 -189q0 -33 -24 -55q-26 -22 -70 -22q-42 0 -68 22q-24 22 -24 55q0 16 6.5 28.5t18.5 22t29.5 14.5t37.5 5q43 0 68.5 -20t25.5 -50zM666 -456q0 -33 -25 -55q-26 -24 -70 -24t-68 24q-25 23 -25 55q0 30 26 53q27 22 67 22q22 0 38.5 -5.5t30.5 -16.5q26 -23 26 -53z
M371 -514q-12 -15 -31 -15q-11 0 -26 6q-13 8 -13 19q0 4 2 9t7 11l287 352v0q10 15 30 15q11 0 25 -5q17 -7 17 -20q0 -9 -6 -19z" />
    <glyph glyph-name="parenleft" unicode="(" 
d="M908 3h-56v3060h56v-3060zM301 3h-56v3060h56v-3060zM58 3h-56v3060h56v-3060zM786 3h-177v3060h177v-3060zM544 3h-178v3060h178v-3060z" />
    <glyph glyph-name="parenright" unicode=")" 
d="M908 3h-56v3060h56v-3060zM301 3h-56v3060h56v-3060zM58 3h-56v3060h56v-3060zM786 3h-177v3060h177v-3060zM544 3h-178v3060h178v-3060z" />
    <glyph glyph-name="asterisk" unicode="*" 
d="M908 3h-56v3060h56v-3060zM301 3h-56v3060h56v-3060zM58 3h-56v3060h56v-3060zM786 3h-177v3060h177v-3060zM544 3h-178v3060h178v-3060zM663 -285q3 -9 3 -16q0 -14 -19 -18l-93 -22q19 -17 39 -33.5t40 -33.5q11 -9 11 -17q0 -10 -12 -17q-12 -8 -28 -8q-12 0 -23 6
l-90 75q-19 -18 -37.5 -37t-37.5 -36q-11 -8 -26 -8q-13 0 -24 5q-12 8 -12 19q0 7 6 17l67 68l-97 20q-25 5 -25 24q0 5 2 14q10 14 30 14q3 0 8 -1l10 -2q23 -4 47.5 -9t48.5 -11v92q0 22 37 22q36 0 36 -27v-86q24 6 50 11t49 9q7 2 13 2q19 0 27 -16z" />
    <glyph glyph-name="plus" unicode="+" 
d="M422 3h-56v3060h56v-3060zM301 3h-56v3060h56v-3060zM58 3h-56v3060h56v-3060zM908 3h-56v3060h56v-3060zM665 3h-56v3060h56v-3060zM672 -320q0 -29 -42 -29h-108v-102q0 -10 -8.5 -15.5t-25.5 -5.5q-39 0 -40 21v102h-114q-34 0 -35 28q0 25 35 26h114v98q0 24 34 24
q40 0 40 -24v-98h107q43 0 43 -25z" />
    <glyph glyph-name="hyphen" unicode="-" 
d="M58 3h-56v3060h56v-3060zM422 3h-56v3060h56v-3060zM301 3h-56v3060h56v-3060zM908 3h-178v3060h178v-3060zM665 3h-178v3060h178v-3060zM670 -317q0 -34 -34 -34h-304q-31 0 -31 35q0 32 31 32h304q34 0 34 -31v-2z" />
    <glyph glyph-name="period" unicode="." 
d="M908 3h-56v3060h56v-3060zM422 3h-56v3060h56v-3060zM544 3h-57v3060h57v-3060zM179 3h-177v3060h177v-3060zM791 3h-182v3060h182v-3060zM574 -510q0 -24 -33 -24h-115q-29 0 -29 24v61q0 22 29 22h115q30 -1 33 -23v-60z" />
    <glyph glyph-name="slash" unicode="/" 
d="M665 3h-56v3060h56v-3060zM301 3h-56v3060h56v-3060zM58 3h-56v3060h56v-3060zM908 3h-56v3060h56v-3060zM544 3h-57v3060h57v-3060zM413 -522q-10 -11 -28 -11q-11 0 -23 4q-16 7 -16 19q0 6 3 13l208 366q9 12 25 12q9 0 21 -3q22 -7 22 -21q0 -6 -4 -12z" />
    <glyph glyph-name="zero" unicode="0" 
d="M908 3h-56v3060h56v-3060zM179 3h-56v3060h56v-3060zM58 3h-56v3060h56v-3060zM786 3h-177v3060h177v-3060zM544 3h-178v3060h178v-3060zM594 -316q-1 117 -29 133q-29 16 -80 16q-67 -2 -90 -18q-23 -19 -23 -131q0 -70 9 -107.5t25 -45.5q29 -12 75 -12h20q41 0 66 18
q27 19 27 147zM673 -316q-3 -65 -11.5 -108.5t-27.5 -65.5v0q-34 -44 -99 -44h-103q-36 0 -60.5 11.5t-39.5 32.5q-31 43 -34 173v11q0 113 39 153q20 20 56 30.5t89 10.5q123 0 155 -50q34 -51 36 -154z" />
    <glyph glyph-name="one" unicode="1" 
d="M665 3h-56v3060h56v-3060zM301 3h-56v3060h56v-3060zM544 3h-57v3060h57v-3060zM179 3h-177v3060h177v-3060zM908 3h-178v3060h178v-3060zM601 -507q0 -30 -36 -30q-35 0 -35 26v323q-26 -15 -51.5 -31t-50.5 -31q-13 -5 -24 -5q-17 0 -28 13q-5 3 -6 7t-1 8q0 10 10 18
l137 84q12 6 25 6h29q31 0 31 -24v-364z" />
    <glyph glyph-name="two" unicode="2" 
d="M58 3h-56v3060h56v-3060zM665 3h-56v3060h56v-3060zM544 3h-57v3060h57v-3060zM908 3h-178v3060h178v-3060zM301 3h-178v3060h178v-3060zM657 -506q0 -27 -35 -27h-266q-15 1 -23 7.5t-9 15.5q-1 4 -1.5 9.5t-0.5 10.5q0 33 22 73q24 46 71 67q27 12 52.5 23.5t48.5 20.5
v0q57 30 60 74q0 55 -75 57h-12q-9 0 -18.5 -0.5t-16.5 -1.5q-10 -1 -32 -8t-55 -18q-8 -2 -17 -2q-23 0 -32 16q-4 7 -4 13q0 13 22 22q91 26 146 29h5q31 0 55.5 -4t40.5 -12q51 -22 66 -80v-10q0 -22 -8 -40q-3 -10 -15 -24.5t-35 -32.5q-9 -6 -32.5 -18t-63.5 -29
q-72 -32 -85 -64q-7 -11 -10.5 -22t-3.5 -19h229q31 0 32 -25v-1z" />
    <glyph glyph-name="three" unicode="3" 
d="M908 3h-56v3060h56v-3060zM786 3h-56v3060h56v-3060zM665 3h-56v3060h56v-3060zM422 3h-177v3060h177v-3060zM179 3h-177v3060h177v-3060zM670 -392q0 -67 -72 -111q-62 -32 -152 -32q-87 0 -135 25q-11 10 -11 20q0 6 2 10.5t5 8.5q10 10 27 10q11 0 26 -7q17 -5 39 -9
t49 -4q68 0 105.5 23.5t44.5 65.5q0 14 -9 27.5t-26 23.5q-36 20 -127 20q-36 0 -36 20q0 18 19 28l129 99h-215q-32 0 -32 27q0 25 33 25h279q34 0 34 -23v-21q-2 -14 -11 -19l-120 -92q84 -14 115 -40q39 -33 39 -75z" />
    <glyph glyph-name="four" unicode="4" 
d="M665 3h-56v3060h56v-3060zM179 3h-56v3060h56v-3060zM58 3h-56v3060h56v-3060zM908 3h-178v3060h178v-3060zM544 3h-178v3060h178v-3060zM635 -386q34 0 34 -26q0 -28 -34 -28h-45v-72q0 -22 -35 -22q-40 0 -40 24v70h-180q-33 0 -33 23v26q2 19 13 28v0l150 230
q9 14 30 14q11 0 22 -3q18 -7 18 -21q0 -7 -3 -15l-152 -228h135v65q0 20 38 22q37 -2 37 -22v-65h45z" />
    <glyph glyph-name="five" unicode="5" 
d="M786 3h-56v3060h56v-3060zM301 3h-56v3060h56v-3060zM908 3h-56v3060h56v-3060zM179 3h-177v3060h177v-3060zM665 3h-178v3060h178v-3060zM641 -389q-1 -33 -20.5 -59.5t-59.5 -48.5q-36 -14 -77 -23t-89 -13h-28q-40 0 -40 26q0 27 32 27h19h19q80 8 124.5 31t44.5 62
q0 56 -67 69q-21 5 -46 7t-52 2h-16t-16 -1q-15 1 -23.5 9.5t-8.5 21.5l8 134q1 11 9 16.5t24 5.5h236q27 0 29 -25q0 -25 -27 -27h-201l-4 -82q17 0 37 -1.5t32 -3.5q161 -20 161 -127z" />
    <glyph glyph-name="six" unicode="6" 
d="M58 3h-56v3060h56v-3060zM786 3h-56v3060h56v-3060zM908 3h-56v3060h56v-3060zM665 3h-178v3060h178v-3060zM301 3h-178v3060h178v-3060zM596 -405q0 18 -7.5 33t-22 26t-36 18t-49.5 7q-46 -4 -76 -25q-28 -21 -28 -54q0 -34 32 -56q32 -23 79 -23q39 0 72 20
q33 19 36 52v2zM669 -411q-2 -50 -55 -89q-50 -35 -126 -35q-79 0 -133 39t-54 95q0 139 221 272q12 6 22 6q13 0 24 -9q14 -11 14 -21q0 -7 -8 -13q-73 -47 -136 -106q15 1 29 2t25 1q6 0 12.5 -0.5t10.5 -1.5q18 -1 34 -5.5t31 -10.5q17 -10 34 -22t30 -23q25 -28 25 -79z
" />
    <glyph glyph-name="seven" unicode="7" 
d="M58 3h-56v3060h56v-3060zM179 3h-56v3060h56v-3060zM422 3h-56v3060h56v-3060zM908 3h-178v3060h178v-3060zM665 3h-178v3060h178v-3060zM644 -143v-30q0 -15 -56 -71q-21 -19 -42 -38.5t-42 -38.5q-29 -30 -45.5 -64t-16.5 -73v-50q-1 -13 -9.5 -19.5t-26.5 -6.5
q-38 0 -38 24v19q-1 3 -1 6.5v5.5q0 56 15.5 98t43.5 72q2 3 18 18t47 43q23 19 41 38t32 36h-202q-36 0 -36 26t38 26h248q32 0 32 -21z" />
    <glyph glyph-name="eight" unicode="8" 
d="M908 3h-56v3060h56v-3060zM301 3h-56v3060h56v-3060zM544 3h-57v3060h57v-3060zM786 3h-177v3060h177v-3060zM179 3h-177v3060h177v-3060zM570 -220q0 25 -26 39q-25 17 -58 17q-19 0 -35 -4.5t-27.5 -11.5t-18 -17.5t-6.5 -22.5v-2q0 -10 6.5 -20t17.5 -19
q13 -8 28.5 -12t32.5 -4h4q32 0 56 15q26 16 26 42zM594 -404q0 29 -34 52q-35 21 -72 21q-41 0 -78 -21q-37 -22 -37 -52q0 -31 30 -55q16 -10 36 -16t45 -6h5q20 0 38.5 4.5t33.5 13.5q33 18 33 57v2zM670 -407q-1 -29 -14.5 -51.5t-40.5 -41.5q-48 -34 -124 -34h-7
q-76 0 -130 35q-54 38 -54 94q0 31 24 57.5t65 45.5q-19 10 -31 19.5t-19 19.5q-13 19 -13 42q0 22 12 40t34 34q43 31 111 31q81 0 120 -32q41 -32 41 -73q0 -20 -15 -40t-44 -41q85 -40 85 -103v-2z" />
    <glyph glyph-name="nine" unicode="9" 
d="M58 3h-56v3060h56v-3060zM908 3h-56v3060h56v-3060zM544 3h-57v3060h57v-3060zM786 3h-177v3060h177v-3060zM301 3h-178v3060h178v-3060zM595 -246q0 31 -30 53q-33 23 -77 23q-49 0 -82 -23q-15 -12 -23.5 -27t-8.5 -31q0 -37 32 -58q33 -21 79 -21q49 1 80 26
q30 23 30 56v2zM669 -260q0 -47 -80 -151q-25 -27 -55 -53t-65 -51q-23 -15 -43 -15q-14 0 -24 7q-10 8 -10 16q0 11 18 25q12 8 35 24q11 8 21.5 16.5t18.5 16.5q9 8 20 20.5t23 25.5q-11 -2 -22.5 -2h-22.5q-72 0 -128 36q-53 36 -53 93q0 56 49 94q25 20 58.5 30.5
t75.5 10.5q24 0 45 -4t40 -11q20 -7 36.5 -18t27.5 -23q35 -33 35 -87z" />
    <glyph glyph-name="equal" unicode="=" 
d="M58 3h-56v3060h56v-3060zM908 3h-56v3060h56v-3060zM544 3h-57v3060h57v-3060zM786 3h-177v3060h177v-3060zM422 3h-177v3060h177v-3060z" />
    <glyph glyph-name="A" unicode="A" 
d="M665 3h-56v3060h56v-3060zM301 3h-56v3060h56v-3060zM422 3h-56v3060h56v-3060zM179 3h-177v3060h177v-3060zM908 3h-178v3060h178v-3060zM484 -202h-3l-56 -165v0q0 -2 3 -2h109q4 0 4 2zM664 -501q1 -2 1.5 -4t0.5 -5q0 -16 -23 -23q-8 -1 -16 -1q-24 0 -31 19l-37 95
h-153l-27 -95q-9 -18 -32 -18q-10 0 -18 1q-25 6 -25 21q0 5 2 9q28 82 57 167t57 169q2 7 9 11.5t20 4.5h66q23 0 31 -17q4 -15 23.5 -71t53.5 -155z" />
    <glyph glyph-name="B" unicode="B" 
d="M58 3h-56v3060h56v-3060zM665 3h-56v3060h56v-3060zM422 3h-56v3060h56v-3060zM908 3h-178v3060h178v-3060zM301 3h-178v3060h178v-3060zM585 -255q-2 52 -86 52h-123v-101h123q84 0 86 49zM598 -411q-2 54 -94 54h-128v-114h128q92 0 94 60zM669 -416q0 -40 -42 -73
q-44 -34 -123 -35h-203v374h197q35 0 62.5 -6.5t50.5 -23.5q22 -15 33.5 -33.5t11.5 -40.5v-3q0 -45 -40 -74q51 -30 53 -80v-5z" />
    <glyph glyph-name="C" unicode="C" 
d="M908 3h-56v3060h56v-3060zM786 3h-56v3060h56v-3060zM544 3h-57v3060h57v-3060zM422 3h-177v3060h177v-3060zM179 3h-177v3060h177v-3060zM630 -469q-22 -35 -52.5 -50t-65.5 -15h-6q-169 0 -170 194q0 88 26 130q41 65 138 65q78 0 104 -32v-1q7 -9 13 -18t9 -17
q4 -4 4.5 -7.5t0.5 -8.5q0 -13 -11 -19q-18 -6 -29 -6q-16 0 -27 16l-5 10l-4 8q-5 9 -14 15t-22 6h-40q-68 0 -71 -140v-7q0 -133 97 -135h3q36 0 56 34q10 17 27 17q12 0 27 -7q16 -8 16 -19q0 -4 -4 -13z" />
    <glyph glyph-name="D" unicode="D" 
d="M665 3h-56v3060h56v-3060zM179 3h-56v3060h56v-3060zM58 3h-56v3060h56v-3060zM422 3h-177v3060h177v-3060zM908 3h-178v3060h178v-3060zM568 -348q0 55 -48 90q-47 36 -118 45v-265q45 3 78 13t52 28q36 36 36 87v2zM642 -351q0 -179 -313 -181v376q302 -2 313 -194v-1z
" />
    <glyph glyph-name="E" unicode="E" 
d="M786 3h-56v3060h56v-3060zM301 3h-56v3060h56v-3060zM908 3h-56v3060h56v-3060zM179 3h-177v3060h177v-3060zM544 3h-178v3060h178v-3060zM649 -506q0 -26 -33 -26h-295v374h286q34 0 34 -25q0 -26 -34 -26h-214v-100h183q35 0 35 -25q0 -27 -35 -27h-183v-119h223
q33 0 33 -26z" />
    <glyph glyph-name="F" unicode="F" 
d="M58 3h-56v3060h56v-3060zM786 3h-56v3060h56v-3060zM908 3h-56v3060h56v-3060zM544 3h-178v3060h178v-3060zM301 3h-178v3060h178v-3060zM622 -180q-2 -25 -36 -25h-166v-99h133q34 0 35 -27v-1q0 -25 -35 -25h-133v-154q-3 -23 -38 -23q-34 0 -34 23v358h238
q16 0 25.5 -6t10.5 -21z" />
    <glyph glyph-name="G" unicode="G" 
d="M58 3h-56v3060h56v-3060zM179 3h-56v3060h56v-3060zM301 3h-56v3060h56v-3060zM908 3h-178v3060h178v-3060zM665 3h-178v3060h178v-3060zM659 -503q-76 -31 -154 -31q-103 0 -149 61q-45 59 -45 119v53q0 35 22.5 69.5t64.5 60.5q41 28 102 28q104 0 143 -50v0
q10 -10 10 -20q0 -8 -10 -15q-16 -8 -29 -8q-15 0 -29 12q-11 29 -68 29h-6q-46 0 -80 -26.5t-48 -79.5v-53q9 -59 39 -92t73 -36q26 1 50.5 4.5t42.5 8.5v88h-84q-35 0 -35 27q0 24 35 24h155v-173z" />
    <glyph glyph-name="H" unicode="H" 
d="M908 3h-56v3060h56v-3060zM301 3h-56v3060h56v-3060zM422 3h-56v3060h56v-3060zM786 3h-177v3060h177v-3060zM179 3h-177v3060h177v-3060zM647 -508q-1 -26 -33 -26q-37 0 -39 24v149h-180v-144q-3 -29 -36 -29h-3q-32 0 -33 29v332q1 25 38 26q31 -1 34 -26v-134h180
v134q0 25 38 26q32 -1 34 -26v-335z" />
    <glyph glyph-name="I" unicode="I" 
d="M58 3h-56v3060h56v-3060zM908 3h-56v3060h56v-3060zM422 3h-56v3060h56v-3060zM786 3h-177v3060h177v-3060zM301 3h-178v3060h178v-3060zM626 -504q0 -25 -33 -25h-213q-36 0 -36 25q0 14 9 20t27 6h68v267h-59q-32 0 -32 29q0 23 32 23h188q36 0 36 -24q0 -28 -34 -28
h-57v-267h71q17 0 25 -7t8 -19z" />
    <glyph glyph-name="J" unicode="J" 
d="M908 3h-56v3060h56v-3060zM179 3h-56v3060h56v-3060zM58 3h-56v3060h56v-3060zM786 3h-177v3060h177v-3060zM422 3h-177v3060h177v-3060zM615 -439q0 -31 -37 -63q-36 -33 -90 -33q-53 0 -90 25q-37 39 -43 90v0q0 23 36 24q33 -1 35 -23q1 -29 16.5 -46t43.5 -17
q18 0 38 14q19 17 19 29v266q2 23 38 24q33 0 34 -24v-266z" />
    <glyph glyph-name="K" unicode="K" 
d="M422 3h-56v3060h56v-3060zM301 3h-56v3060h56v-3060zM544 3h-57v3060h57v-3060zM179 3h-177v3060h177v-3060zM908 3h-178v3060h178v-3060zM654 -527q-14 -7 -28 -7q-15 0 -26 10q-56 42 -111 83t-110 84v-149q0 -28 -35 -28q-38 0 -38 28v335q0 23 37 24q36 -1 36 -23
v-136q53 38 104.5 76.5t104.5 77.5q10 8 22 8q13 0 26 -10t13 -19q0 -10 -9 -18l-193 -140l206 -159q11 -7 11 -18q0 -10 -10 -19z" />
    <glyph glyph-name="L" unicode="L" 
d="M422 3h-56v3060h56v-3060zM58 3h-56v3060h56v-3060zM544 3h-57v3060h57v-3060zM908 3h-178v3060h178v-3060zM301 3h-178v3060h178v-3060zM313 -529v354q0 22 36 22t36 -22v-303h239q34 0 34 -26q0 -25 -31 -25h-314z" />
    <glyph glyph-name="M" unicode="M" 
d="M908 3h-56v3060h56v-3060zM665 3h-56v3060h56v-3060zM544 3h-57v3060h57v-3060zM422 3h-177v3060h177v-3060zM179 3h-177v3060h177v-3060zM669 -507q-1 -27 -34 -27q-38 0 -38 27v292q-20 -47 -39.5 -92.5t-39.5 -93.5q-11 -18 -33 -19q-23 0 -32 19l-77 186v-295
q0 -13 -9.5 -19t-29.5 -6q-34 0 -35 25v337q0 23 30 23h93l60 -147l62 147h90q32 0 32 -25v-332z" />
    <glyph glyph-name="N" unicode="N" 
d="M58 3h-56v3060h56v-3060zM179 3h-56v3060h56v-3060zM544 3h-57v3060h57v-3060zM422 3h-177v3060h177v-3060zM908 3h-178v3060h178v-3060zM659 -511q0 -23 -48 -23h-7q-30 0 -40 13l-182 270v-259q0 -24 -34 -24q-35 0 -37 24v332q0 25 28 25h43q8 0 14 -3t9 -7l183 -271
v259q0 22 36 22q34 0 35 -22v-336z" />
    <glyph glyph-name="O" unicode="O" 
d="M665 3h-56v3060h56v-3060zM301 3h-56v3060h56v-3060zM908 3h-56v3060h56v-3060zM179 3h-177v3060h177v-3060zM544 3h-178v3060h178v-3060zM590 -341q0 143 -109 143q-101 0 -101 -143q0 -138 101 -138q109 0 109 138zM667 -341q0 -39 -9.5 -70t-26.5 -57
q-48 -67 -150 -67q-94 0 -141 67q-17 26 -26.5 57t-9.5 70q0 76 35 128q48 70 142 70q102 0 150 -70q17 -28 26.5 -59t9.5 -69z" />
    <glyph glyph-name="P" unicode="P" 
d="M58 3h-56v3060h56v-3060zM665 3h-56v3060h56v-3060zM908 3h-56v3060h56v-3060zM544 3h-178v3060h178v-3060zM301 3h-178v3060h178v-3060zM586 -262q-2 48 -63 57h-139v-115h139q30 4 46.5 18t16.5 40zM658 -268q0 -39 -39 -72q-40 -31 -94 -32h-138v-139q0 -23 -33 -23
q-40 0 -41 23v358h210q17 0 33 -4t32 -12q31 -16 49.5 -41t20.5 -55v-3z" />
    <glyph glyph-name="Q" unicode="Q" 
d="M58 3h-56v3060h56v-3060zM179 3h-56v3060h56v-3060zM301 3h-56v3060h56v-3060zM908 3h-178v3060h178v-3060zM544 3h-178v3060h178v-3060zM575 -328q-4 128 -104 128q-95 0 -95 -131q0 -125 94 -126q27 0 49 11q-17 17 -34.5 34t-35.5 33q-5 8 -5 17q0 4 4 8.5t9 8.5
q14 8 25 8t22 -6l57 -54q7 14 10 30.5t4 38.5zM656 -529q-14 -6 -26 -6q-15 0 -23 8l-43 42q-22 -12 -46.5 -18.5t-51.5 -6.5q-42 0 -74 15.5t-54 47.5q-17 24 -27 54t-10 63q0 68 35 117q21 31 55 47.5t79 17.5h2q88 0 132 -59q21 -26 32 -56.5t11 -61.5v-5q0 -31 -10 -59
t-27 -53q13 -13 27 -26t27 -26q5 -8 5 -14q0 -10 -13 -21v0z" />
    <glyph glyph-name="R" unicode="R" 
d="M908 3h-56v3060h56v-3060zM301 3h-56v3060h56v-3060zM422 3h-56v3060h56v-3060zM179 3h-177v3060h177v-3060zM665 3h-178v3060h178v-3060zM568 -269q-2 60 -97 61h-75v-115h75q96 0 97 54zM639 -494q7 -9 7 -16q0 -12 -19 -19q-13 -6 -23 -6q-15 0 -25 12v0l-120 148h-63
v-135q0 -23 -36 -24q-34 0 -35 24v355h159q37 0 66 -10.5t52 -29.5q39 -31 39 -76q0 -33 -26 -58t-75 -41q7 -8 22 -26t38 -45z" />
    <glyph glyph-name="S" unicode="S" 
d="M58 3h-56v3060h56v-3060zM908 3h-56v3060h56v-3060zM422 3h-56v3060h56v-3060zM665 3h-178v3060h178v-3060zM301 3h-178v3060h178v-3060zM643 -442q-1 -22 -17 -40t-44 -31q-23 -10 -51.5 -16t-61.5 -6q-47 0 -93 24q-23 11 -36 27.5t-13 38.5q0 31 37 31q36 0 36 -25v-1
q0 -7 3 -13t7 -9q18 -17 69 -19q91 1 92 41q0 31 -66 62q-53 27 -110 54q-62 38 -62 72v2q1 47 44 74q44 27 105 29q30 -1 54.5 -4.5t44.5 -12.5q27 -11 41.5 -25.5t17.5 -32.5q0 -22 -24 -28q-8 -1 -15 -1q-27 0 -34 22q0 14 -17 22t-61 8q-36 0 -60.5 -15t-24.5 -38
q2 -25 72 -55q25 -12 52.5 -26.5t51.5 -27.5q29 -18 46 -38.5t17 -42.5v0z" />
    <glyph glyph-name="T" unicode="T" 
d="M908 3h-56v3060h56v-3060zM179 3h-56v3060h56v-3060zM58 3h-56v3060h56v-3060zM422 3h-177v3060h177v-3060zM665 3h-178v3060h178v-3060zM669 -183q0 -25 -34 -25h-113v-303q0 -23 -34 -23q-39 0 -39 24v302h-113q-33 0 -34 28q0 25 34 25h299q34 0 34 -28z" />
    <glyph glyph-name="U" unicode="U" 
d="M665 3h-56v3060h56v-3060zM422 3h-56v3060h56v-3060zM544 3h-57v3060h57v-3060zM179 3h-177v3060h177v-3060zM908 3h-178v3060h178v-3060zM656 -438q0 -37 -47 -68q-44 -28 -118 -28h-4q-84 1 -128 31q-45 30 -45 61v269q0 22 36 23q34 0 37 -23v-265q0 -20 24 -30.5
t69 -12.5q100 2 103 43v265q0 23 36 23q35 0 37 -23v-265z" />
    <glyph glyph-name="V" unicode="V" 
d="M58 3h-56v3060h56v-3060zM665 3h-56v3060h56v-3060zM544 3h-57v3060h57v-3060zM422 3h-177v3060h177v-3060zM908 3h-178v3060h178v-3060zM547 -514q-12 -20 -30 -20h-61q-27 0 -30 17l-123 333q0 2 -0.5 5t-0.5 5q0 19 25 22q8 2 16 2q23 0 29 -16l113 -307l113 307
q6 16 32 16q3 0 7 -0.5t9 -1.5q23 -4 23 -21v-3.5t-1 -3.5z" />
    <glyph glyph-name="W" unicode="W" 
d="M908 3h-56v3060h56v-3060zM786 3h-56v3060h56v-3060zM665 3h-56v3060h56v-3060zM179 3h-177v3060h177v-3060zM544 3h-178v3060h178v-3060zM564 -534q-19 0 -30 13l-49 120l-43 -115q-9 -18 -30 -18h-35q-26 0 -30 28l-45 331v3q0 19 34 22h1q33 0 39 -22l33 -231
q7 22 16 45l18 46q6 17 42 17t43 -17l37 -92l33 233q2 21 36 21h7q28 -3 28 -26l-46 -330q-7 -27 -30 -28h-29z" />
    <glyph glyph-name="X" unicode="X" 
d="M665 3h-56v3060h56v-3060zM301 3h-56v3060h56v-3060zM58 3h-56v3060h56v-3060zM908 3h-178v3060h178v-3060zM544 3h-178v3060h178v-3060zM648 -496q3 -4 4 -7t1 -7q0 -12 -19 -19q-7 -3 -13 -3.5t-11 -0.5q-14 0 -22 9l-104 137l-98 -134q-11 -12 -29 -12q-8 0 -22 4
q-18 10 -18 19q0 6 4 10l118 163l-116 150q-6 7 -6 14t4.5 11t12.5 9q12 5 22 5q14 0 26 -10l102 -130q26 31 51 62.5t51 63.5q12 14 27 14q8 0 20 -5q20 -9 20 -22q0 -7 -4 -10l-118 -152z" />
    <glyph glyph-name="Y" unicode="Y" 
d="M786 3h-56v3060h56v-3060zM422 3h-56v3060h56v-3060zM908 3h-56v3060h56v-3060zM179 3h-177v3060h177v-3060zM665 3h-178v3060h178v-3060zM522 -361v-150q0 -24 -38 -24q-36 0 -36 24v150q-31 41 -63.5 85t-62.5 84q-5 8 -5 15q0 11 16 17v0q13 7 24 7q16 0 26 -10
l101 -135q27 34 53.5 68.5t51.5 67.5q9 9 22 9q12 0 25 -6q18 -7 18 -19q0 -6 -5 -13z" />
    <glyph glyph-name="Z" unicode="Z" 
d="M58 3h-56v3060h56v-3060zM786 3h-56v3060h56v-3060zM908 3h-56v3060h56v-3060zM422 3h-177v3060h177v-3060zM665 3h-178v3060h178v-3060zM649 -507q-1 -26 -33 -26h-259q-35 0 -35 21q0 6 4 15l201 283h-170q-16 0 -24.5 6t-8.5 22v1q0 23 33 23h236q24 0 30 -13
q0 -3 0.5 -5t0.5 -3q0 -10 -4 -16l-200 -281h194q35 0 35 -27z" />
    <glyph glyph-name="underscore" unicode="_" 
d="M58 3h-56v3060h56v-3060zM908 3h-56v3060h56v-3060zM544 3h-57v3060h57v-3060zM786 3h-177v3060h177v-3060zM422 3h-177v3060h177v-3060z" />
    <glyph glyph-name="a" unicode="a" 
d="M665 3h-56v3060h56v-3060zM301 3h-56v3060h56v-3060zM422 3h-56v3060h56v-3060zM179 3h-177v3060h177v-3060zM908 3h-178v3060h178v-3060zM484 -202h-3l-56 -165v0q0 -2 3 -2h109q4 0 4 2zM664 -501q1 -2 1.5 -4t0.5 -5q0 -16 -23 -23q-8 -1 -16 -1q-24 0 -31 19l-37 95
h-153l-27 -95q-9 -18 -32 -18q-10 0 -18 1q-25 6 -25 21q0 5 2 9q28 82 57 167t57 169q2 7 9 11.5t20 4.5h66q23 0 31 -17q4 -15 23.5 -71t53.5 -155z" />
    <glyph glyph-name="b" unicode="b" 
d="M58 3h-56v3060h56v-3060zM665 3h-56v3060h56v-3060zM422 3h-56v3060h56v-3060zM908 3h-178v3060h178v-3060zM301 3h-178v3060h178v-3060zM585 -255q-2 52 -86 52h-123v-101h123q84 0 86 49zM598 -411q-2 54 -94 54h-128v-114h128q92 0 94 60zM669 -416q0 -40 -42 -73
q-44 -34 -123 -35h-203v374h197q35 0 62.5 -6.5t50.5 -23.5q22 -15 33.5 -33.5t11.5 -40.5v-3q0 -45 -40 -74q51 -30 53 -80v-5z" />
    <glyph glyph-name="c" unicode="c" 
d="M908 3h-56v3060h56v-3060zM786 3h-56v3060h56v-3060zM544 3h-57v3060h57v-3060zM422 3h-177v3060h177v-3060zM179 3h-177v3060h177v-3060zM630 -469q-22 -35 -52.5 -50t-65.5 -15h-6q-169 0 -170 194q0 88 26 130q41 65 138 65q78 0 104 -32v-1q7 -9 13 -18t9 -17
q4 -4 4.5 -7.5t0.5 -8.5q0 -13 -11 -19q-18 -6 -29 -6q-16 0 -27 16l-5 10l-4 8q-5 9 -14 15t-22 6h-40q-68 0 -71 -140v-7q0 -133 97 -135h3q36 0 56 34q10 17 27 17q12 0 27 -7q16 -8 16 -19q0 -4 -4 -13z" />
    <glyph glyph-name="d" unicode="d" 
d="M665 3h-56v3060h56v-3060zM179 3h-56v3060h56v-3060zM58 3h-56v3060h56v-3060zM422 3h-177v3060h177v-3060zM908 3h-178v3060h178v-3060zM568 -348q0 55 -48 90q-47 36 -118 45v-265q45 3 78 13t52 28q36 36 36 87v2zM642 -351q0 -179 -313 -181v376q302 -2 313 -194v-1z
" />
    <glyph glyph-name="e" unicode="e" 
d="M786 3h-56v3060h56v-3060zM301 3h-56v3060h56v-3060zM908 3h-56v3060h56v-3060zM179 3h-177v3060h177v-3060zM544 3h-178v3060h178v-3060zM649 -506q0 -26 -33 -26h-295v374h286q34 0 34 -25q0 -26 -34 -26h-214v-100h183q35 0 35 -25q0 -27 -35 -27h-183v-119h223
q33 0 33 -26z" />
    <glyph glyph-name="f" unicode="f" 
d="M58 3h-56v3060h56v-3060zM786 3h-56v3060h56v-3060zM908 3h-56v3060h56v-3060zM544 3h-178v3060h178v-3060zM301 3h-178v3060h178v-3060zM622 -180q-2 -25 -36 -25h-166v-99h133q34 0 35 -27v-1q0 -25 -35 -25h-133v-154q-3 -23 -38 -23q-34 0 -34 23v358h238
q16 0 25.5 -6t10.5 -21z" />
    <glyph glyph-name="g" unicode="g" 
d="M58 3h-56v3060h56v-3060zM179 3h-56v3060h56v-3060zM301 3h-56v3060h56v-3060zM908 3h-178v3060h178v-3060zM665 3h-178v3060h178v-3060zM659 -503q-76 -31 -154 -31q-103 0 -149 61q-45 59 -45 119v53q0 35 22.5 69.5t64.5 60.5q41 28 102 28q104 0 143 -50v0
q10 -10 10 -20q0 -8 -10 -15q-16 -8 -29 -8q-15 0 -29 12q-11 29 -68 29h-6q-46 0 -80 -26.5t-48 -79.5v-53q9 -59 39 -92t73 -36q26 1 50.5 4.5t42.5 8.5v88h-84q-35 0 -35 27q0 24 35 24h155v-173z" />
    <glyph glyph-name="h" unicode="h" 
d="M908 3h-56v3060h56v-3060zM301 3h-56v3060h56v-3060zM422 3h-56v3060h56v-3060zM786 3h-177v3060h177v-3060zM179 3h-177v3060h177v-3060zM647 -508q-1 -26 -33 -26q-37 0 -39 24v149h-180v-144q-3 -29 -36 -29h-3q-32 0 -33 29v332q1 25 38 26q31 -1 34 -26v-134h180
v134q0 25 38 26q32 -1 34 -26v-335z" />
    <glyph glyph-name="i" unicode="i" 
d="M58 3h-56v3060h56v-3060zM908 3h-56v3060h56v-3060zM422 3h-56v3060h56v-3060zM786 3h-177v3060h177v-3060zM301 3h-178v3060h178v-3060zM626 -504q0 -25 -33 -25h-213q-36 0 -36 25q0 14 9 20t27 6h68v267h-59q-32 0 -32 29q0 23 32 23h188q36 0 36 -24q0 -28 -34 -28
h-57v-267h71q17 0 25 -7t8 -19z" />
    <glyph glyph-name="j" unicode="j" 
d="M908 3h-56v3060h56v-3060zM179 3h-56v3060h56v-3060zM58 3h-56v3060h56v-3060zM786 3h-177v3060h177v-3060zM422 3h-177v3060h177v-3060zM615 -439q0 -31 -37 -63q-36 -33 -90 -33q-53 0 -90 25q-37 39 -43 90v0q0 23 36 24q33 -1 35 -23q1 -29 16.5 -46t43.5 -17
q18 0 38 14q19 17 19 29v266q2 23 38 24q33 0 34 -24v-266z" />
    <glyph glyph-name="k" unicode="k" 
d="M422 3h-56v3060h56v-3060zM301 3h-56v3060h56v-3060zM544 3h-57v3060h57v-3060zM179 3h-177v3060h177v-3060zM908 3h-178v3060h178v-3060zM654 -527q-14 -7 -28 -7q-15 0 -26 10q-56 42 -111 83t-110 84v-149q0 -28 -35 -28q-38 0 -38 28v335q0 23 37 24q36 -1 36 -23
v-136q53 38 104.5 76.5t104.5 77.5q10 8 22 8q13 0 26 -10t13 -19q0 -10 -9 -18l-193 -140l206 -159q11 -7 11 -18q0 -10 -10 -19z" />
    <glyph glyph-name="l" unicode="l" 
d="M422 3h-56v3060h56v-3060zM58 3h-56v3060h56v-3060zM544 3h-57v3060h57v-3060zM908 3h-178v3060h178v-3060zM301 3h-178v3060h178v-3060zM313 -529v354q0 22 36 22t36 -22v-303h239q34 0 34 -26q0 -25 -31 -25h-314z" />
    <glyph glyph-name="m" unicode="m" 
d="M908 3h-56v3060h56v-3060zM665 3h-56v3060h56v-3060zM544 3h-57v3060h57v-3060zM422 3h-177v3060h177v-3060zM179 3h-177v3060h177v-3060zM669 -507q-1 -27 -34 -27q-38 0 -38 27v292q-20 -47 -39.5 -92.5t-39.5 -93.5q-11 -18 -33 -19q-23 0 -32 19l-77 186v-295
q0 -13 -9.5 -19t-29.5 -6q-34 0 -35 25v337q0 23 30 23h93l60 -147l62 147h90q32 0 32 -25v-332z" />
    <glyph glyph-name="n" unicode="n" 
d="M58 3h-56v3060h56v-3060zM179 3h-56v3060h56v-3060zM544 3h-57v3060h57v-3060zM422 3h-177v3060h177v-3060zM908 3h-178v3060h178v-3060zM659 -511q0 -23 -48 -23h-7q-30 0 -40 13l-182 270v-259q0 -24 -34 -24q-35 0 -37 24v332q0 25 28 25h43q8 0 14 -3t9 -7l183 -271
v259q0 22 36 22q34 0 35 -22v-336z" />
    <glyph glyph-name="o" unicode="o" 
d="M665 3h-56v3060h56v-3060zM301 3h-56v3060h56v-3060zM908 3h-56v3060h56v-3060zM179 3h-177v3060h177v-3060zM544 3h-178v3060h178v-3060zM590 -341q0 143 -109 143q-101 0 -101 -143q0 -138 101 -138q109 0 109 138zM667 -341q0 -39 -9.5 -70t-26.5 -57
q-48 -67 -150 -67q-94 0 -141 67q-17 26 -26.5 57t-9.5 70q0 76 35 128q48 70 142 70q102 0 150 -70q17 -28 26.5 -59t9.5 -69z" />
    <glyph glyph-name="p" unicode="p" 
d="M58 3h-56v3060h56v-3060zM665 3h-56v3060h56v-3060zM908 3h-56v3060h56v-3060zM544 3h-178v3060h178v-3060zM301 3h-178v3060h178v-3060zM586 -262q-2 48 -63 57h-139v-115h139q30 4 46.5 18t16.5 40zM658 -268q0 -39 -39 -72q-40 -31 -94 -32h-138v-139q0 -23 -33 -23
q-40 0 -41 23v358h210q17 0 33 -4t32 -12q31 -16 49.5 -41t20.5 -55v-3z" />
    <glyph glyph-name="q" unicode="q" 
d="M58 3h-56v3060h56v-3060zM179 3h-56v3060h56v-3060zM301 3h-56v3060h56v-3060zM908 3h-178v3060h178v-3060zM544 3h-178v3060h178v-3060zM575 -328q-4 128 -104 128q-95 0 -95 -131q0 -125 94 -126q27 0 49 11q-17 17 -34.5 34t-35.5 33q-5 8 -5 17q0 4 4 8.5t9 8.5
q14 8 25 8t22 -6l57 -54q7 14 10 30.5t4 38.5zM656 -529q-14 -6 -26 -6q-15 0 -23 8l-43 42q-22 -12 -46.5 -18.5t-51.5 -6.5q-42 0 -74 15.5t-54 47.5q-17 24 -27 54t-10 63q0 68 35 117q21 31 55 47.5t79 17.5h2q88 0 132 -59q21 -26 32 -56.5t11 -61.5v-5q0 -31 -10 -59
t-27 -53q13 -13 27 -26t27 -26q5 -8 5 -14q0 -10 -13 -21v0z" />
    <glyph glyph-name="r" unicode="r" 
d="M908 3h-56v3060h56v-3060zM301 3h-56v3060h56v-3060zM422 3h-56v3060h56v-3060zM179 3h-177v3060h177v-3060zM665 3h-178v3060h178v-3060zM568 -269q-2 60 -97 61h-75v-115h75q96 0 97 54zM639 -494q7 -9 7 -16q0 -12 -19 -19q-13 -6 -23 -6q-15 0 -25 12v0l-120 148h-63
v-135q0 -23 -36 -24q-34 0 -35 24v355h159q37 0 66 -10.5t52 -29.5q39 -31 39 -76q0 -33 -26 -58t-75 -41q7 -8 22 -26t38 -45z" />
    <glyph glyph-name="s" unicode="s" 
d="M58 3h-56v3060h56v-3060zM908 3h-56v3060h56v-3060zM422 3h-56v3060h56v-3060zM665 3h-178v3060h178v-3060zM301 3h-178v3060h178v-3060zM643 -442q-1 -22 -17 -40t-44 -31q-23 -10 -51.5 -16t-61.5 -6q-47 0 -93 24q-23 11 -36 27.5t-13 38.5q0 31 37 31q36 0 36 -25v-1
q0 -7 3 -13t7 -9q18 -17 69 -19q91 1 92 41q0 31 -66 62q-53 27 -110 54q-62 38 -62 72v2q1 47 44 74q44 27 105 29q30 -1 54.5 -4.5t44.5 -12.5q27 -11 41.5 -25.5t17.5 -32.5q0 -22 -24 -28q-8 -1 -15 -1q-27 0 -34 22q0 14 -17 22t-61 8q-36 0 -60.5 -15t-24.5 -38
q2 -25 72 -55q25 -12 52.5 -26.5t51.5 -27.5q29 -18 46 -38.5t17 -42.5v0z" />
    <glyph glyph-name="t" unicode="t" 
d="M908 3h-56v3060h56v-3060zM179 3h-56v3060h56v-3060zM58 3h-56v3060h56v-3060zM422 3h-177v3060h177v-3060zM665 3h-178v3060h178v-3060zM669 -183q0 -25 -34 -25h-113v-303q0 -23 -34 -23q-39 0 -39 24v302h-113q-33 0 -34 28q0 25 34 25h299q34 0 34 -28z" />
    <glyph glyph-name="u" unicode="u" 
d="M665 3h-56v3060h56v-3060zM422 3h-56v3060h56v-3060zM544 3h-57v3060h57v-3060zM179 3h-177v3060h177v-3060zM908 3h-178v3060h178v-3060zM656 -438q0 -37 -47 -68q-44 -28 -118 -28h-4q-84 1 -128 31q-45 30 -45 61v269q0 22 36 23q34 0 37 -23v-265q0 -20 24 -30.5
t69 -12.5q100 2 103 43v265q0 23 36 23q35 0 37 -23v-265z" />
    <glyph glyph-name="v" unicode="v" 
d="M58 3h-56v3060h56v-3060zM665 3h-56v3060h56v-3060zM544 3h-57v3060h57v-3060zM422 3h-177v3060h177v-3060zM908 3h-178v3060h178v-3060zM547 -514q-12 -20 -30 -20h-61q-27 0 -30 17l-123 333q0 2 -0.5 5t-0.5 5q0 19 25 22q8 2 16 2q23 0 29 -16l113 -307l113 307
q6 16 32 16q3 0 7 -0.5t9 -1.5q23 -4 23 -21v-3.5t-1 -3.5z" />
    <glyph glyph-name="w" unicode="w" 
d="M908 3h-56v3060h56v-3060zM786 3h-56v3060h56v-3060zM665 3h-56v3060h56v-3060zM179 3h-177v3060h177v-3060zM544 3h-178v3060h178v-3060zM564 -534q-19 0 -30 13l-49 120l-43 -115q-9 -18 -30 -18h-35q-26 0 -30 28l-45 331v3q0 19 34 22h1q33 0 39 -22l33 -231
q7 22 16 45l18 46q6 17 42 17t43 -17l37 -92l33 233q2 21 36 21h7q28 -3 28 -26l-46 -330q-7 -27 -30 -28h-29z" />
    <glyph glyph-name="x" unicode="x" 
d="M665 3h-56v3060h56v-3060zM301 3h-56v3060h56v-3060zM58 3h-56v3060h56v-3060zM908 3h-178v3060h178v-3060zM544 3h-178v3060h178v-3060zM648 -496q3 -4 4 -7t1 -7q0 -12 -19 -19q-7 -3 -13 -3.5t-11 -0.5q-14 0 -22 9l-104 137l-98 -134q-11 -12 -29 -12q-8 0 -22 4
q-18 10 -18 19q0 6 4 10l118 163l-116 150q-6 7 -6 14t4.5 11t12.5 9q12 5 22 5q14 0 26 -10l102 -130q26 31 51 62.5t51 63.5q12 14 27 14q8 0 20 -5q20 -9 20 -22q0 -7 -4 -10l-118 -152z" />
    <glyph glyph-name="y" unicode="y" 
d="M786 3h-56v3060h56v-3060zM422 3h-56v3060h56v-3060zM908 3h-56v3060h56v-3060zM179 3h-177v3060h177v-3060zM665 3h-178v3060h178v-3060zM522 -361v-150q0 -24 -38 -24q-36 0 -36 24v150q-31 41 -63.5 85t-62.5 84q-5 8 -5 15q0 11 16 17v0q13 7 24 7q16 0 26 -10
l101 -135q27 34 53.5 68.5t51.5 67.5q9 9 22 9q12 0 25 -6q18 -7 18 -19q0 -6 -5 -13z" />
    <glyph glyph-name="z" unicode="z" 
d="M58 3h-56v3060h56v-3060zM786 3h-56v3060h56v-3060zM908 3h-56v3060h56v-3060zM422 3h-177v3060h177v-3060zM665 3h-178v3060h178v-3060zM649 -507q-1 -26 -33 -26h-259q-35 0 -35 21q0 6 4 15l201 283h-170q-16 0 -24.5 6t-8.5 22v1q0 23 33 23h236q24 0 30 -13
q0 -3 0.5 -5t0.5 -3q0 -10 -4 -16l-200 -281h194q35 0 35 -27z" />
    <glyph glyph-name="nonbreakingspace" unicode="&#xa0;" 
 />
    <glyph glyph-name="minus" unicode="&#xad;" 
d="M58 3h-56v3060h56v-3060zM422 3h-56v3060h56v-3060zM301 3h-56v3060h56v-3060zM908 3h-178v3060h178v-3060zM665 3h-178v3060h178v-3060zM670 -317q0 -34 -34 -34h-304q-31 0 -31 35q0 32 31 32h304q34 0 34 -31v-2z" />
    <glyph glyph-name="quotedbl" unicode="&#x22;" 
 />
    <glyph glyph-name="numbersign" unicode="#" 
 />
    <glyph glyph-name="ampersand" unicode="&#x26;" 
 />
    <glyph glyph-name="quotesingle" unicode="'" 
 />
    <glyph glyph-name="comma" unicode="," 
 />
    <glyph glyph-name="colon" unicode=":" 
 />
    <glyph glyph-name="semicolon" unicode=";" 
 />
    <glyph glyph-name="less" unicode="&#x3c;" 
 />
    <glyph glyph-name="greater" unicode="&#x3e;" 
 />
    <glyph glyph-name="question" unicode="?" 
 />
    <glyph glyph-name="at" unicode="@" 
 />
    <glyph glyph-name="bracketleft" unicode="[" 
 />
    <glyph glyph-name="backslash" unicode="\" 
 />
    <glyph glyph-name="bracketright" unicode="]" 
 />
    <glyph glyph-name="asciicircum" unicode="^" 
 />
    <glyph glyph-name="grave" unicode="`" 
 />
    <glyph glyph-name="braceleft" unicode="{" 
 />
    <glyph glyph-name="bar" unicode="|" 
 />
    <glyph glyph-name="braceright" unicode="}" 
 />
    <glyph glyph-name="asciitilde" unicode="~" 
 />
  </font>
</defs>
</svg>
